<svg xmlns="http://www.w3.org/2000/svg" width="35.24" height="41.748" viewBox="0 0 35.24 41.748"><path d="M.5,162.223v28.521H22.35V168.035l-5.411-5.812ZM19.9,188.3H2.947V164.669H15.874L19.9,169Zm0,0" transform="translate(-0.5 -148.995)"/><path d="M210.928,116.021a11.232,11.232,0,0,0-4.092-1.373l-.235,2.435c.246.025,6.038.685,6.652,6.658l2.434-.25A9.316,9.316,0,0,0,210.928,116.021Zm0,0" transform="translate(-189.796 -105.3)"/><path d="M224.494,60.637A15.827,15.827,0,0,0,218.73,58.7l-.23,2.436a13.376,13.376,0,0,1,4.783,1.628,10.625,10.625,0,0,1,5.462,8.625l2.434-.25a13.093,13.093,0,0,0-6.684-10.5Zm0,0" transform="translate(-200.725 -53.913)"/><path d="M234.536,2.586A21.08,21.08,0,0,0,226.856,0l-.231,2.436a18.738,18.738,0,0,1,6.7,2.276,14.909,14.909,0,0,1,7.669,12.1l2.434-.25a17.423,17.423,0,0,0-8.892-13.976Zm0,0" transform="translate(-208.187)"/><path d="M70.656,245.1h10.1V234.8h-10.1Zm2.447-7.853h5.211v5.406H73.1Zm0,0" transform="translate(-64.936 -215.655)"/></svg>