<svg xmlns="http://www.w3.org/2000/svg" width="38.619" height="38.619" viewBox="0 0 38.619 38.619"><path d="M2.263,2.263H9.051V0H0V9.051H2.263Zm0,0"/><path d="M392,0V2.263h6.789V9.051h2.263V0Zm0,0" transform="translate(-362.432)"/><path d="M398.789,398.789H392v2.263h9.051V392h-2.263Zm0,0" transform="translate(-362.432 -362.432)"/><path d="M2.263,392H0v9.051H9.051v-2.263H2.263Zm0,0" transform="translate(0 -362.432)"/><path d="M61,60V71.314H72.314V64.526h2.263V62.263H72.314V60Zm9.051,9.051H63.263V62.263h6.789Zm0,0" transform="translate(-56.399 -55.474)"/><path d="M284.577,283.577V272.263h-4.526V270h-2.263v2.263H271v2.263h2.263v2.263H271v2.263h2.263v4.526Zm-9.051-9.051h6.789v6.789h-6.789Zm0,0" transform="translate(-250.559 -249.634)"/><path d="M67.789,242.263h4.526V240H61v2.263h4.526v2.263H63.263v2.263h2.263v4.526H63.263v2.263h2.263v2.263H76.84v-2.263H74.577v-2.263H72.314v2.263H67.789v-2.263h2.263v-2.263H67.789Zm0,0" transform="translate(-56.399 -221.897)"/><path d="M121,120h2.263v2.263H121Zm0,0" transform="translate(-111.873 -110.949)"/><path d="M361,120h2.263v2.263H361Zm0,0" transform="translate(-333.77 -110.949)"/><path d="M307.789,71.314h4.526V60H301V71.314h4.526v2.263h2.263Zm-4.526-2.263V62.263h6.789v6.789Zm0,0" transform="translate(-278.296 -55.474)"/><path d="M395.526,242.263V240H391v2.263Zm0,0" transform="translate(-361.508 -221.897)"/><path d="M361,360h2.263v2.263H361Zm0,0" transform="translate(-333.77 -332.846)"/><path d="M241,330h2.263v2.263H241Zm0,0" transform="translate(-222.822 -305.109)"/><path d="M181,304.526h2.263V300H181Zm0,0" transform="translate(-167.347 -277.372)"/><path d="M211,270h2.263v2.263H211Zm0,0" transform="translate(-195.085 -249.634)"/><path d="M63.263,330H61v4.526h2.263Zm0,0" transform="translate(-56.399 -305.109)"/><path d="M61,420h2.263v2.263H61Zm0,0" transform="translate(-56.399 -388.32)"/><path d="M241,60h2.263v2.263H241Zm0,0" transform="translate(-222.822 -55.474)"/><path d="M241,124.526h2.263V120H241Zm0,0" transform="translate(-222.822 -110.949)"/><path d="M243.263,212.263V210H241v4.526h9.051v-2.263Zm0,0" transform="translate(-222.822 -194.16)"/></svg>