<svg xmlns="http://www.w3.org/2000/svg" width="44.44" height="44.44" viewBox="0 0 44.44 44.44"><defs><style>.a{fill:#bfbfbf;}</style></defs><path class="a" d="M36.558,33.414,29.464,31.64l-.6-2.415a12.767,12.767,0,0,0,3.583-7.109,2.783,2.783,0,0,0,2.007-2.329l.463-3.7a2.772,2.772,0,0,0-1.772-2.937l.17-3.487L34,8.966c1.043-1.109,1.907-3.011.1-5.77C32.715,1.076,30.356,0,27.09,0a12.2,12.2,0,0,0-7.018,1.855c-7.888.165-8.962,3.829-8.962,7.4,0,.831.2,2.7.335,3.833a2.781,2.781,0,0,0-1.918,2.994l.463,3.7a2.786,2.786,0,0,0,2.228,2.383,12.847,12.847,0,0,0,3.405,6.892l-.644,2.579L7.884,33.417A10.385,10.385,0,0,0,0,43.514a.926.926,0,0,0,.926.926H43.514a.929.929,0,0,0,.926-.93A10.392,10.392,0,0,0,36.558,33.414Z"/></svg>