<svg xmlns="http://www.w3.org/2000/svg" width="16.358" height="21.947" viewBox="0 0 16.358 21.947"><defs><style>.a{fill:#fff;}</style></defs><g transform="translate(-52.016)"><g transform="translate(52.016)"><path class="a" d="M74.779,115.013a1.1,1.1,0,0,0,1.1,1.058H86.194a1.1,1.1,0,0,0,1.1-1.058l.736-15.545H74.043Zm8.592-11.684a.449.449,0,0,1,.449-.449h.718a.449.449,0,0,1,.449.449v8.881a.449.449,0,0,1-.449.449H83.82a.449.449,0,0,1-.449-.449Zm-3.14,0a.449.449,0,0,1,.449-.449H81.4a.449.449,0,0,1,.449.449v8.881a.449.449,0,0,1-.449.449H80.68a.449.449,0,0,1-.449-.449v-8.881Zm-3.14,0a.449.449,0,0,1,.449-.449h.718a.449.449,0,0,1,.449.449v8.881a.449.449,0,0,1-.449.449H77.54a.449.449,0,0,1-.449-.449Z" transform="translate(-72.86 -94.124)"/><path class="a" d="M67.681,1.131H62.924v-.9A.231.231,0,0,0,62.693,0h-5a.231.231,0,0,0-.231.231v.9H52.709a.693.693,0,0,0-.693.693V4H68.374V1.824A.693.693,0,0,0,67.681,1.131Z" transform="translate(-52.016)"/></g></g></svg>