<svg xmlns="http://www.w3.org/2000/svg" width="14.784" height="19.561" viewBox="0 0 14.784 19.561"><defs><style>.a{fill:#fff;}</style></defs><g transform="translate(0 7.506)"><g transform="translate(0)"><path class="a" d="M76.159,196.465H63.649a1.139,1.139,0,0,0-1.137,1.137v9.78a1.139,1.139,0,0,0,1.137,1.137h12.51a1.139,1.139,0,0,0,1.137-1.137V197.6A1.139,1.139,0,0,0,76.159,196.465Zm-.227,10.69H63.877V197.83H75.932v9.325Z" transform="translate(-62.512 -196.465)"/></g></g><g transform="translate(1.82)"><g transform="translate(0)"><path class="a" d="M115.712,0a5.6,5.6,0,0,0-5.572,5.618V7.961H111.5V5.618a4.208,4.208,0,1,1,8.416,0V7.961h1.365V5.618A5.6,5.6,0,0,0,115.712,0Z" transform="translate(-110.14)"/></g></g><g transform="translate(6.596 12.737)"><g transform="translate(0)"><path class="a" d="M235.845,333.4a.682.682,0,0,0-.682.682v1.592a.682.682,0,0,0,1.365,0v-1.592A.682.682,0,0,0,235.845,333.4Z" transform="translate(-235.163 -333.395)"/></g></g></svg>