<svg xmlns="http://www.w3.org/2000/svg" width="28.589" height="27.833" viewBox="0 0 28.589 27.833"><g transform="translate(0 0)"><path d="M23.518,20.927l-4.563-1.111L18.566,18.3a7.921,7.921,0,0,0,2.3-4.452,1.758,1.758,0,0,0,1.291-1.459l.3-2.319a1.7,1.7,0,0,0-.425-1.356,1.794,1.794,0,0,0-.715-.484l.11-2.184.446-.435C22.546,4.921,23.1,3.73,21.939,2a5.057,5.057,0,0,0-4.512-2,8.02,8.02,0,0,0-4.515,1.162c-5.075.1-5.765,2.4-5.765,4.637,0,.521.13,1.693.216,2.4a1.782,1.782,0,0,0-.8.508,1.711,1.711,0,0,0-.434,1.367l.3,2.319A1.765,1.765,0,0,0,7.86,13.887,7.967,7.967,0,0,0,10.05,18.2l-.415,1.615L5.072,20.929A6.54,6.54,0,0,0,0,27.253a.588.588,0,0,0,.6.58h27.4a.59.59,0,0,0,.6-.582A6.544,6.544,0,0,0,23.518,20.927Z" transform="translate(0 0)"/></g></svg>