<svg xmlns="http://www.w3.org/2000/svg" width="25.127" height="27.833" viewBox="0 0 25.127 27.833"><path d="M421,271h3.35v3.262H421Z" transform="translate(-399.223 -256.268)"/><path d="M421,61h3.35v4.893H421Z" transform="translate(-399.223 -57.684)"/><path d="M421,361h3.35v4.893H421Z" transform="translate(-399.223 -341.375)"/><path d="M168.513,301A2.483,2.483,0,0,0,166,303.446v.243a5.8,5.8,0,0,0,5.025,0v-.243A2.483,2.483,0,0,0,168.513,301Z" transform="translate(-158.462 -284.637)"/><path d="M111.863,157.523a2.447,2.447,0,1,1,2.513-2.446,2.483,2.483,0,0,1-2.513,2.446,4.169,4.169,0,0,1,4.1,3.253,5.613,5.613,0,0,0,1.762-4.068,5.865,5.865,0,0,0-11.726,0,5.613,5.613,0,0,0,1.762,4.068A4.169,4.169,0,0,1,111.863,157.523Z" transform="translate(-101.812 -142.791)"/><circle transform="translate(10.73 12.333)"/><path d="M31,27.833H51.1V0H31ZM41.051,6.578a7.449,7.449,0,0,1,7.538,7.339,7.541,7.541,0,0,1-15.076,0A7.449,7.449,0,0,1,41.051,6.578Z" transform="translate(-31)"/><path d="M421,181h3.35v3.262H421Z" transform="translate(-399.223 -171.16)"/></svg>