<svg xmlns="http://www.w3.org/2000/svg" width="28.586" height="27.833" viewBox="0 0 28.586 27.833"><path d="M27.818,12.106l0,0L16.154.75a2.682,2.682,0,0,0-3.722,0L.776,12.1l-.012.012a2.518,2.518,0,0,0,.005,3.618,2.65,2.65,0,0,0,1.746.747q.04,0,.081,0h.465v8.355a3.044,3.044,0,0,0,3.08,3H10.7a.827.827,0,0,0,.838-.815V20.467A1.389,1.389,0,0,1,12.947,19.1h2.691a1.389,1.389,0,0,1,1.405,1.368v6.551a.827.827,0,0,0,.838.815h4.563a3.044,3.044,0,0,0,3.08-3V16.479h.431a2.652,2.652,0,0,0,1.861-.751,2.519,2.519,0,0,0,0-3.622Zm0,0" transform="translate(0 0.001)"/></svg>