<svg xmlns="http://www.w3.org/2000/svg" width="21.286" height="27.833" viewBox="0 0 21.286 27.833"><defs><style>.a{fill:#bfbfbf;}</style></defs><g transform="translate(0 0)"><path class="a" d="M145.126,2.11h-2.092a.584.584,0,0,1-.55-.429A2.117,2.117,0,0,0,140.319,0a2.152,2.152,0,0,0-2.165,1.715.549.549,0,0,1-.551.393h-2.018V5.683h9.541Z" transform="translate(-129.713 -0.001)"/><path class="a" d="M73.273,84.073V63.6a1.485,1.485,0,0,0-1.5-1.469q-.057,0-.114,0H68.5v1.822c0,.286-.183.679-.477.679H57.2c-.294,0-.44-.393-.44-.679V62.137H53.6a1.492,1.492,0,0,0-1.611,1.354q0,.055,0,.111V84.074A1.628,1.628,0,0,0,53.6,85.717H71.658a1.628,1.628,0,0,0,1.615-1.643ZM59.658,79.357,56.8,81.966a.519.519,0,0,1-.367.179.594.594,0,0,1-.4-.179l-1.5-1.5a.526.526,0,0,1,.037-.75.561.561,0,0,1,.771,0l1.1,1.143,2.5-2.287a.56.56,0,0,1,.766.137A.525.525,0,0,1,59.658,79.357Zm0-5.716h0L56.8,76.249a.519.519,0,0,1-.367.179.594.594,0,0,1-.4-.179l-1.5-1.5a.526.526,0,0,1,.037-.75.561.561,0,0,1,.771,0l1.1,1.143,2.5-2.287a.56.56,0,0,1,.766.137A.525.525,0,0,1,59.658,73.641Zm0-5.716L56.8,70.533a.519.519,0,0,1-.367.179.594.594,0,0,1-.4-.179l-1.5-1.5a.526.526,0,0,1,.037-.75.561.561,0,0,1,.771,0l1.1,1.143,2.5-2.287a.56.56,0,0,1,.766.137A.525.525,0,0,1,59.658,67.924ZM70.337,81.43H61.9a.536.536,0,1,1,0-1.072h8.44a.536.536,0,1,1,0,1.072Zm0-5.716H61.9a.536.536,0,1,1,0-1.072h8.44a.536.536,0,1,1,0,1.072Zm0-5.716H61.9a.536.536,0,1,1,0-1.072h8.44a.536.536,0,1,1,0,1.072Z" transform="translate(-51.988 -57.884)"/></g></svg>