<svg
  xmlns="http://www.w3.org/2000/svg"
  width="18.489"
  height="21.13"
  viewBox="0 0 18.489 21.13"
><path
    d="M143.065,10.565a5.283,5.283,0,1,1,5.283-5.282A5.289,5.289,0,0,1,143.065,10.565Zm0-9.244a3.962,3.962,0,1,0,3.962,3.962,3.966,3.966,0,0,0-3.962-3.962Z"
    transform="translate(-133.82)"
  /><path
    d="M52.273,320.378H35.105a.66.66,0,0,1-.66-.66v-4.545a1.98,1.98,0,0,1,.91-1.674,16.133,16.133,0,0,1,16.668,0,1.981,1.981,0,0,1,.911,1.675v4.545A.66.66,0,0,1,52.273,320.378Zm-16.508-1.321H51.613v-3.885a.651.651,0,0,0-.29-.555,14.785,14.785,0,0,0-15.269,0,.65.65,0,0,0-.289.554Z"
    transform="translate(-34.445 -299.248)"
  /></svg>
