<svg xmlns="http://www.w3.org/2000/svg" width="18.204" height="16" viewBox="0 0 18.204 16"><path d="M17.675,2.133H12.836V1.6a1.6,1.6,0,0,0-1.6-1.6H6.969a1.6,1.6,0,0,0-1.6,1.6v.533H.534A.535.535,0,0,0,0,2.667V14.4A1.6,1.6,0,0,0,1.6,16h15a1.6,1.6,0,0,0,1.6-1.6V2.676a.518.518,0,0,0-.53-.542ZM6.436,1.6a.534.534,0,0,1,.533-.533h4.267a.534.534,0,0,1,.533.533v.533H6.436Zm10.5,1.6L15.275,8.169a.532.532,0,0,1-.506.365h-3V8a.533.533,0,0,0-.533-.533H6.969A.533.533,0,0,0,6.436,8v.533h-3a.532.532,0,0,1-.506-.365L1.274,3.2ZM10.7,8.533V9.6H7.5V8.533ZM17.138,14.4a.534.534,0,0,1-.533.533H1.6a.534.534,0,0,1-.533-.533V5.953l.851,2.553A1.6,1.6,0,0,0,3.436,9.6h3v.533a.533.533,0,0,0,.533.533h4.267a.533.533,0,0,0,.533-.533V9.6h3a1.6,1.6,0,0,0,1.518-1.094l.851-2.553Zm0,0" transform="translate(0)"/></svg>