<svg xmlns="http://www.w3.org/2000/svg" width="74.203" height="74.203" viewBox="0 0 74.203 74.203"><defs><style>.a{fill:#bfbfbf;}</style></defs><g transform="translate(-10.532 -10.267)"><path class="a" d="M61.041,55.791,49.2,52.829,48.189,48.8a21.317,21.317,0,0,0,5.983-11.869,4.646,4.646,0,0,0,3.351-3.889l.773-6.184a4.629,4.629,0,0,0-2.959-4.9l.284-5.822,1.156-1.159c1.741-1.852,3.184-5.027.167-9.634C54.626,1.8,50.687,0,45.233,0A20.378,20.378,0,0,0,33.515,3.1c-13.171.275-14.964,6.394-14.964,12.361,0,1.388.337,4.514.56,6.4a4.643,4.643,0,0,0-3.2,5l.773,6.184A4.652,4.652,0,0,0,20.4,37.021a21.451,21.451,0,0,0,5.686,11.508l-1.076,4.307L13.165,55.8A17.34,17.34,0,0,0,0,72.657,1.547,1.547,0,0,0,1.546,74.2H72.657A1.552,1.552,0,0,0,74.2,72.651,17.352,17.352,0,0,0,61.041,55.791Z" transform="translate(10.532 10.267)"/></g></svg>