<svg xmlns="http://www.w3.org/2000/svg" width="12.667" height="20.267" viewBox="0 0 12.667 20.267"><g transform="translate(-99)"><path d="M109.767,0H100.9A1.9,1.9,0,0,0,99,1.9V18.367a1.9,1.9,0,0,0,1.9,1.9h8.867a1.9,1.9,0,0,0,1.9-1.9V1.9A1.9,1.9,0,0,0,109.767,0ZM100.9,1.267h8.867a.634.634,0,0,1,.633.633V15.2H100.267V1.9A.634.634,0,0,1,100.9,1.267ZM109.767,19H100.9a.634.634,0,0,1-.633-.633v-1.9H110.4v1.9A.634.634,0,0,1,109.767,19Z"/><path d="M248.58,445.685a.633.633,0,1,1-.9,0,.633.633,0,0,1,.9,0" transform="translate(-142.799 -428.4)"/></g></svg>