<svg xmlns="http://www.w3.org/2000/svg" width="30.802" height="30.802" viewBox="0 0 30.802 30.802"><defs><style>.a{fill:#fff;}</style></defs><path class="a" d="M1.8,1.8H7.219V0H0V7.219H1.8Zm0,0"/><path class="a" d="M392,0V1.8h5.414V7.219h1.8V0Zm0,0" transform="translate(-368.418)"/><path class="a" d="M397.414,397.414H392v1.8h7.219V392h-1.8Zm0,0" transform="translate(-368.418 -368.418)"/><path class="a" d="M1.8,392H0v7.219H7.219v-1.8H1.8Zm0,0" transform="translate(0 -368.418)"/><path class="a" d="M61,60v9.024h9.024V63.61h1.8V61.8h-1.8V60Zm7.219,7.219H62.8V61.8h5.414Zm0,0" transform="translate(-57.33 -56.39)"/><path class="a" d="M281.829,280.829V271.8h-3.61V270h-1.8v1.8H271v1.8h1.8v1.8H271v1.8h1.8v3.61Zm-7.219-7.219h5.414v5.414H274.61Zm0,0" transform="translate(-254.697 -253.757)"/><path class="a" d="M66.414,241.8h3.61V240H61v1.8h3.61v1.8H62.8v1.8h1.8v3.61H62.8v1.8h1.8v1.8h9.024v-1.8h-1.8v-1.8h-1.8v1.8h-3.61v-1.8h1.8v-1.8h-1.8Zm0,0" transform="translate(-57.33 -225.562)"/><path class="a" d="M121,120h1.8v1.8H121Zm0,0" transform="translate(-113.721 -112.781)"/><path class="a" d="M361,120h1.8v1.8H361Zm0,0" transform="translate(-339.283 -112.781)"/><path class="a" d="M306.414,69.024h3.61V60H301v9.024h3.61v1.8h1.8Zm-3.61-1.8V61.8h5.414v5.414Zm0,0" transform="translate(-282.892 -56.39)"/><path class="a" d="M394.61,241.8V240H391v1.8Zm0,0" transform="translate(-367.478 -225.562)"/><path class="a" d="M361,360h1.8v1.8H361Zm0,0" transform="translate(-339.283 -338.343)"/><path class="a" d="M241,330h1.8v1.8H241Zm0,0" transform="translate(-226.502 -310.147)"/><path class="a" d="M181,303.61h1.8V300H181Zm0,0" transform="translate(-170.111 -281.952)"/><path class="a" d="M211,270h1.8v1.8H211Zm0,0" transform="translate(-198.306 -253.757)"/><path class="a" d="M62.8,330H61v3.61h1.8Zm0,0" transform="translate(-57.33 -310.147)"/><path class="a" d="M61,420h1.8v1.8H61Zm0,0" transform="translate(-57.33 -394.733)"/><path class="a" d="M241,60h1.8v1.8H241Zm0,0" transform="translate(-226.502 -56.39)"/><path class="a" d="M241,123.61h1.8V120H241Zm0,0" transform="translate(-226.502 -112.781)"/><path class="a" d="M242.8,211.8V210H241v3.61h7.219v-1.8Zm0,0" transform="translate(-226.502 -197.367)"/></svg>