<svg xmlns="http://www.w3.org/2000/svg" width="23.941" height="26.118" viewBox="0 0 23.941 26.118"><defs><style>.a{fill:#fff;}</style></defs><g transform="translate(0 0)"><path class="a" d="M321.741,19.537A3.537,3.537,0,1,1,318.2,16,3.537,3.537,0,0,1,321.741,19.537Zm0,0" transform="translate(-298.616 -15.184)"/><path class="a" d="M303.021,8.706a4.353,4.353,0,1,1,4.353-4.353A4.357,4.357,0,0,1,303.021,8.706Zm0-7.074a2.721,2.721,0,1,0,2.721,2.721,2.724,2.724,0,0,0-2.721-2.721Zm0,0" transform="translate(-283.432 0)"/><path class="a" d="M321.741,360.869a3.537,3.537,0,1,1-3.537-3.537A3.537,3.537,0,0,1,321.741,360.869Zm0,0" transform="translate(-298.616 -339.104)"/><path class="a" d="M303.021,350.038a4.353,4.353,0,1,1,4.353-4.353A4.357,4.357,0,0,1,303.021,350.038Zm0-7.074a2.721,2.721,0,1,0,2.721,2.721A2.724,2.724,0,0,0,303.021,342.964Zm0,0" transform="translate(-283.432 -323.92)"/><path class="a" d="M23.074,190.2a3.537,3.537,0,1,1-3.537-3.537A3.537,3.537,0,0,1,23.074,190.2Zm0,0" transform="translate(-15.184 -177.146)"/><path class="a" d="M4.353,179.374a4.353,4.353,0,1,1,4.353-4.353,4.357,4.357,0,0,1-4.353,4.353Zm0-7.074a2.721,2.721,0,1,0,2.721,2.721A2.724,2.724,0,0,0,4.353,172.3Zm0,0" transform="translate(0 -161.962)"/><path class="a" d="M115.438,98.149a1.088,1.088,0,0,1-.54-2.034L125,90.358a1.088,1.088,0,1,1,1.077,1.891l-10.1,5.757A1.081,1.081,0,0,1,115.438,98.149Zm0,0" transform="translate(-108.515 -85.612)"/><path class="a" d="M125.556,274.153a1.081,1.081,0,0,1-.538-.143l-10.1-5.757A1.088,1.088,0,0,1,116,266.362l10.1,5.757a1.088,1.088,0,0,1-.54,2.034Zm0,0" transform="translate(-108.537 -252.638)"/></g></svg>