<svg xmlns="http://www.w3.org/2000/svg" width="18.204" height="17.24" viewBox="0 0 18.204 17.24"><path d="M17.675,2.3H12.836V1.724A1.667,1.667,0,0,0,11.236,0H6.969a1.667,1.667,0,0,0-1.6,1.724V2.3H.534A.557.557,0,0,0,0,2.873V15.516A1.667,1.667,0,0,0,1.6,17.24h15a1.667,1.667,0,0,0,1.6-1.724V2.883c-.02-.377-.236-.582-.53-.584ZM6.436,1.724a.556.556,0,0,1,.533-.575h4.267a.556.556,0,0,1,.533.575V2.3H6.436Zm10.5,1.724L15.275,8.8a.537.537,0,0,1-.506.393h-3V8.62a.555.555,0,0,0-.533-.575H6.969a.555.555,0,0,0-.533.575v.575h-3A.537.537,0,0,1,2.93,8.8L1.274,3.448ZM10.7,9.194v1.149H7.5V9.194Zm6.436,6.321a.556.556,0,0,1-.533.575H1.6a.556.556,0,0,1-.533-.575v-9.1l.851,2.751a1.613,1.613,0,0,0,1.518,1.179h3v.575a.555.555,0,0,0,.533.575h4.267a.555.555,0,0,0,.533-.575v-.575h3a1.613,1.613,0,0,0,1.518-1.179l.851-2.751Zm0,0" transform="translate(0)"/></svg>