<svg xmlns="http://www.w3.org/2000/svg" width="29.787" height="35.288" viewBox="0 0 29.787 35.288"><path d="M.5,162.223V186.33H18.969v-19.2L14.4,162.223Zm16.4,22.04H2.568V164.291H13.5l3.406,3.658Zm0,0" transform="translate(-0.5 -151.042)"/><path d="M210.259,115.808a9.494,9.494,0,0,0-3.458-1.16l-.2,2.058a6.313,6.313,0,0,1,5.623,5.627l2.057-.212A7.875,7.875,0,0,0,210.259,115.808Zm0,0" transform="translate(-192.396 -106.746)"/><path d="M223.567,60.338a13.378,13.378,0,0,0-4.872-1.638l-.195,2.059a11.306,11.306,0,0,1,4.043,1.376,8.981,8.981,0,0,1,4.616,7.29l2.057-.211a11.067,11.067,0,0,0-5.65-8.876Zm0,0" transform="translate(-203.475 -54.654)"/><path d="M233.312,2.186A17.818,17.818,0,0,0,226.82,0l-.195,2.059a15.839,15.839,0,0,1,5.663,1.924,12.6,12.6,0,0,1,6.482,10.229L240.827,14a14.727,14.727,0,0,0-7.516-11.814Zm0,0" transform="translate(-211.04)"/><path d="M70.656,243.506H79.2V234.8H70.656Zm2.068-6.638h4.4v4.57h-4.4Zm0,0" transform="translate(-65.821 -218.617)"/></svg>