<svg xmlns="http://www.w3.org/2000/svg" width="35.484" height="35.484" viewBox="0 0 35.484 35.484"><path d="M2.079,2.079H8.317V0H0V8.317H2.079Zm0,0"/><path d="M392,0V2.079h6.237V8.317h2.079V0Zm0,0" transform="translate(-364.832)"/><path d="M398.237,398.237H392v2.079h8.317V392h-2.079Zm0,0" transform="translate(-364.832 -364.832)"/><path d="M2.079,392H0v8.317H8.317v-2.079H2.079Zm0,0" transform="translate(0 -364.832)"/><path d="M61,60V70.4H71.4V64.158h2.079V62.079H71.4V60Zm8.317,8.317H63.079V62.079h6.237Zm0,0" transform="translate(-56.772 -55.842)"/><path d="M283.475,282.475v-10.4h-4.158V270h-2.079v2.079H271v2.079h2.079v2.079H271v2.079h2.079v4.158Zm-8.317-8.317H281.4V280.4h-6.237Zm0,0" transform="translate(-252.218 -251.288)"/><path d="M67.237,242.079H71.4V240H61v2.079h4.158v2.079H63.079v2.079h2.079V250.4H63.079v2.079h2.079v2.079h10.4v-2.079H73.475V250.4H71.4v2.079H67.237V250.4h2.079v-2.079H67.237Zm0,0" transform="translate(-56.772 -223.367)"/><path d="M121,120h2.079v2.079H121Zm0,0" transform="translate(-112.614 -111.683)"/><path d="M361,120h2.079v2.079H361Zm0,0" transform="translate(-335.981 -111.683)"/><path d="M307.237,70.4H311.4V60H301V70.4h4.158v2.079h2.079Zm-4.158-2.079V62.079h6.237v6.237Zm0,0" transform="translate(-280.139 -55.842)"/><path d="M395.158,242.079V240H391v2.079Zm0,0" transform="translate(-363.902 -223.367)"/><path d="M361,360h2.079v2.079H361Zm0,0" transform="translate(-335.981 -335.05)"/><path d="M241,330h2.079v2.079H241Zm0,0" transform="translate(-224.297 -307.129)"/><path d="M181,304.158h2.079V300H181Zm0,0" transform="translate(-168.456 -279.208)"/><path d="M211,270h2.079v2.079H211Zm0,0" transform="translate(-196.377 -251.288)"/><path d="M63.079,330H61v4.158h2.079Zm0,0" transform="translate(-56.772 -307.129)"/><path d="M61,420h2.079v2.079H61Zm0,0" transform="translate(-56.772 -390.892)"/><path d="M241,60h2.079v2.079H241Zm0,0" transform="translate(-224.297 -55.842)"/><path d="M241,124.158h2.079V120H241Zm0,0" transform="translate(-224.297 -111.683)"/><path d="M243.079,212.079V210H241v4.158h8.317v-2.079Zm0,0" transform="translate(-224.297 -195.446)"/></svg>